<?xml version="1.0" encoding="utf-8"?>
<!-- Generator: Adobe Illustrator 25.2.1, SVG Export Plug-In . SVG Version: 6.00 Build 0)  -->
<svg version="1.1" id="SPJIMR-Identity-Colour-RGB-Positive"
	 xmlns="http://www.w3.org/2000/svg" xmlns:xlink="http://www.w3.org/1999/xlink" x="0px" y="0px" viewBox="0 0 283.5 107.7"
	 style="enable-background:new 0 0 283.5 107.7;" xml:space="preserve">
<style type="text/css">
	.st0{fill:#512480;}
	.st1{fill:url(#SVGID_1_);}
	.st2{fill:url(#SVGID_2_);}
	.st3{fill:url(#SVGID_3_);}
	.st4{fill:url(#SVGID_4_);}
	.st5{fill:url(#SVGID_5_);}
</style>
<g>
	<g>
		<path class="st0" d="M160.1,86.8c0,7.9-3.9,12.4-10.9,12.4c-4.4,0-6.4-1.6-8.2-3.5l-2.6,2.6c2.8,2.8,6.4,4.2,10.8,4.2
			c8.9,0,14.7-6,14.7-15V52.8h-3.8L160.1,86.8L160.1,86.8z"/>
		<rect x="177" y="52.8" class="st0" width="3.7" height="49.4"/>
		<polygon class="st0" points="215.6,90.8 198.4,52.8 194.7,52.8 194.7,102.1 198.4,102.1 198.4,61.4 213.7,95.2 217.4,95.2 
			232.4,61.4 232.4,102.1 236.1,102.1 236.1,52.8 232.4,52.8 		"/>
		<path class="st0" d="M271.5,79.3c6.9-1.2,11.4-6,11.4-13.3c0-8.6-6.1-13.2-14.1-13.2H250v49.4h3.7V79.4h13.6l11.8,22.7h4.4
			L271.5,79.3z M253.7,76.1v-20h14.6c6.3,0,10.9,3.2,10.9,10c0,6.8-4.6,10-10.9,10L253.7,76.1L253.7,76.1z"/>
		<path class="st0" d="M97.7,77c-2.2-2-5-3.1-9.4-3.8l-5.4-0.8c-2-0.3-3.7-1-4.8-1.9c-1-0.9-1.4-2.1-1.4-3.6c0-3.9,2.9-6.3,7.6-6.3
			c4.2,0,7.2,1,9.6,3.4l0.8,0.7l6.1-6l-0.8-0.8c-4.3-4-8.9-5.7-15.4-5.7c-10.3,0-16.9,5.9-16.9,15c0,4.2,1.3,7.5,3.8,9.8
			c2.3,2.1,5.6,3.5,9.6,4.1l5.6,0.8c2.8,0.4,3.7,0.9,4.6,1.7c1.2,1.1,1.5,2.9,1.5,4.1c0,5.4-5.5,6.2-8.7,6.2
			c-5.1,0-8.4-1.2-11.4-4.2L71.8,89l-6.3,6.2l0.8,0.8c4.6,4.6,9.8,6.6,17.5,6.6c10.8,0,18.1-6,18.1-15
			C101.9,83.1,100.5,79.5,97.7,77z"/>
		<path class="st0" d="M145.3,67.9c0-9.2-6.7-15.6-16.4-15.6h-19.2v50h9.4V83.5h9.8C138.5,83.5,145.3,77.1,145.3,67.9z M128.5,74.8
			h-9.4V61h9.4c4.6,0,7.4,2.6,7.4,6.9C135.9,72.2,133.1,74.8,128.5,74.8z"/>
	</g>
	<g>
		<g>
			<path class="st0" d="M79.6,35.7c0.8-0.3,1.6-1.2,1.6-2.5c0-2-1.4-3.3-3.6-3.3H73v11.9h4.8c2.1,0,3.6-1.2,3.6-3.4
				C81.4,36.9,80.5,36.1,79.6,35.7z M74.8,31.5h2.7c1.2,0,1.9,0.6,1.9,1.7c0,1.1-0.8,1.7-1.9,1.7h-2.7V31.5z M77.7,40.2h-2.8v-3.6
				h2.8c1.2,0,1.9,0.8,1.9,1.8C79.6,39.4,78.9,40.2,77.7,40.2z"/>
			<path class="st0" d="M88.4,33.2c-0.8,0-1.6,0.3-2.2,1v-4.3h-1.7v11.9h1.7v-5.2c0-1.3,0.8-1.8,1.7-1.8c0.9,0,1.7,0.6,1.7,1.8v5.2
				h1.7v-5.5C91.4,34.5,90.3,33.2,88.4,33.2z"/>
			<path class="st0" d="M97.4,33.2c-1.4,0-2.2,0.3-3,1.2l1.1,1c0.5-0.6,0.9-0.8,1.8-0.8c1.3,0,1.8,0.5,1.8,1.6v0.6h-2.2
				c-1.9,0-2.9,1-2.9,2.4c0,0.7,0.2,1.4,0.7,1.8c0.5,0.5,1.2,0.8,2.3,0.8c1.1,0,1.6-0.2,2.2-0.9v0.8h1.7v-5.7
				C100.9,34.2,99.7,33.2,97.4,33.2z M99.2,38.7c0,0.6-0.1,1-0.4,1.3c-0.4,0.4-0.9,0.5-1.6,0.5c-1.1,0-1.6-0.4-1.6-1.2
				c0-0.8,0.5-1.2,1.5-1.2h2V38.7z"/>
			<path class="st0" d="M105.9,34.3v-0.9h-1.7v8.5h1.7v-5.1c0-1.2,0.8-1.9,1.7-1.9c0.6,0,0.9,0.2,1.3,0.6l1.3-1.3
				c-0.6-0.6-1.2-0.8-2-0.8C107.2,33.2,106.3,33.7,105.9,34.3z"/>
			<path class="st0" d="M114.8,33.2c-1.4,0-2.2,0.3-3,1.2l1.1,1c0.5-0.6,0.9-0.8,1.9-0.8c1.3,0,1.9,0.5,1.9,1.6v0.6h-2.2
				c-1.9,0-2.9,1-2.9,2.4c0,0.7,0.2,1.4,0.7,1.8c0.5,0.5,1.2,0.8,2.3,0.8s1.6-0.2,2.2-0.9v0.8h1.7v-5.7
				C118.2,34.2,117.1,33.2,114.8,33.2z M116.5,38.7c0,0.6-0.1,1-0.4,1.3c-0.4,0.4-0.9,0.5-1.6,0.5c-1.1,0-1.6-0.4-1.6-1.2
				c0-0.8,0.5-1.2,1.5-1.2h2L116.5,38.7L116.5,38.7z"/>
			<path class="st0" d="M123.4,30.9h-1.7v2.6h-1v1.3h1v4.7c0,1.2,0.7,2.4,2.3,2.4h1v-1.4h-0.7c-0.6,0-0.9-0.4-0.9-1v-4.6h1.6v-1.3
				h-1.6L123.4,30.9L123.4,30.9z"/>
			<path class="st0" d="M128.8,29.5c-0.6,0-1.1,0.5-1.1,1.1s0.5,1.1,1.1,1.1s1.1-0.5,1.1-1.1C129.9,30,129.4,29.5,128.8,29.5z"/>
			<rect x="127.9" y="33.3" class="st0" width="1.7" height="8.5"/>
			<path class="st0" d="M135.6,39.3l-2-6h-1.8l3,8.1l-0.5,1.3c-0.2,0.7-0.5,0.9-1.2,0.9h-0.4v1.5h0.7c0.6,0,1.3-0.2,1.7-0.6
				c0.2-0.2,0.4-0.6,0.6-1.1l3.7-10.2h-1.8L135.6,39.3z"/>
			<path class="st0" d="M144,33.2c-1.4,0-2.2,0.3-3,1.2l1.1,1c0.5-0.6,0.9-0.8,1.9-0.8c1.3,0,1.9,0.5,1.9,1.6v0.6h-2.2
				c-1.9,0-2.9,1-2.9,2.4c0,0.7,0.2,1.4,0.7,1.8c0.5,0.5,1.2,0.8,2.3,0.8s1.6-0.2,2.2-0.9v0.8h1.7v-5.7
				C147.5,34.2,146.4,33.2,144,33.2z M145.8,38.7c0,0.6-0.1,1-0.4,1.3c-0.4,0.4-0.9,0.5-1.6,0.5c-1.1,0-1.6-0.4-1.6-1.2
				c0-0.8,0.5-1.2,1.5-1.2h2L145.8,38.7L145.8,38.7z"/>
			<polygon class="st0" points="158.8,38.6 156.1,29.9 154.2,29.9 158.1,41.8 159.5,41.8 163.5,29.9 161.6,29.9 			"/>
			<path class="st0" d="M166.4,29.5c-0.6,0-1.1,0.5-1.1,1.1s0.5,1.1,1.1,1.1s1.1-0.5,1.1-1.1S167,29.5,166.4,29.5z"/>
			<rect x="165.6" y="33.3" class="st0" width="1.7" height="8.5"/>
			<path class="st0" d="M175.5,34.2c-0.6-0.7-1.3-1-2.2-1c-0.9,0-1.6,0.3-2.1,0.8c-0.9,0.8-0.9,2.3-0.9,3.6c0,1.3,0.1,2.7,0.9,3.6
				c0.5,0.5,1.2,0.8,2.1,0.8c0.9,0,1.6-0.2,2.2-1v0.9h1.7V29.9h-1.7L175.5,34.2L175.5,34.2z M173.7,40.4c-1.5,0-1.8-1.3-1.8-2.8
				s0.2-2.8,1.8-2.8c1.5,0,1.8,1.3,1.8,2.8C175.5,39.1,175.3,40.4,173.7,40.4z"/>
			<path class="st0" d="M183.2,39.3l-2-6h-1.8l3,8.1l-0.5,1.3c-0.2,0.7-0.5,0.9-1.2,0.9h-0.4v1.5h0.7c0.6,0,1.3-0.2,1.7-0.6
				c0.2-0.2,0.4-0.6,0.6-1.1l3.7-10.2h-1.8L183.2,39.3z"/>
			<path class="st0" d="M191.6,33.2c-1.4,0-2.2,0.3-3,1.2l1.1,1c0.5-0.6,0.9-0.8,1.9-0.8c1.3,0,1.9,0.5,1.9,1.6v0.6h-2.2
				c-1.9,0-2.9,1-2.9,2.4c0,0.7,0.2,1.4,0.7,1.8c0.5,0.5,1.2,0.8,2.3,0.8s1.6-0.2,2.3-0.9v0.8h1.7v-5.7
				C195.1,34.2,193.9,33.2,191.6,33.2z M193.4,38.7c0,0.6-0.1,1-0.4,1.3c-0.4,0.4-0.9,0.5-1.6,0.5c-1.1,0-1.6-0.4-1.6-1.2
				c0-0.8,0.5-1.2,1.5-1.2h2L193.4,38.7L193.4,38.7z"/>
			<path class="st0" d="M209.9,35.7c0.8-0.3,1.6-1.2,1.6-2.5c0-2-1.4-3.3-3.6-3.3h-4.6v11.9h4.8c2.1,0,3.6-1.2,3.6-3.4
				C211.7,36.9,210.8,36.1,209.9,35.7z M205.1,31.5h2.7c1.1,0,1.9,0.6,1.9,1.7c0,1.1-0.8,1.7-1.9,1.7h-2.7V31.5z M207.9,40.2h-2.8
				v-3.6h2.8c1.2,0,1.9,0.8,1.9,1.8C209.8,39.4,209.1,40.2,207.9,40.2z"/>
			<path class="st0" d="M218.7,33.2c-0.8,0-1.6,0.3-2.2,1v-4.3h-1.7v11.9h1.7v-5.2c0-1.3,0.8-1.8,1.7-1.8s1.7,0.6,1.7,1.8v5.2h1.7
				v-5.5C221.6,34.5,220.6,33.2,218.7,33.2z"/>
			<path class="st0" d="M227.6,33.2c-1.4,0-2.2,0.3-3,1.2l1.1,1c0.5-0.6,0.9-0.8,1.9-0.8c1.3,0,1.9,0.5,1.9,1.6v0.6h-2.2
				c-1.9,0-2.9,1-2.9,2.4c0,0.7,0.2,1.4,0.7,1.8c0.5,0.5,1.2,0.8,2.3,0.8s1.6-0.2,2.2-0.9v0.8h1.7v-5.7
				C231.1,34.2,230,33.2,227.6,33.2z M229.4,38.7c0,0.6-0.1,1-0.4,1.3c-0.4,0.4-0.9,0.5-1.6,0.5c-1.1,0-1.6-0.4-1.6-1.2
				c0-0.8,0.5-1.2,1.5-1.2h2L229.4,38.7L229.4,38.7z"/>
			<polygon class="st0" points="237,39.3 235,33.3 233.2,33.3 236.3,41.8 237.7,41.8 240.8,33.3 239,33.3 			"/>
			<path class="st0" d="M245.5,33.2c-1.4,0-2.2,0.3-3,1.2l1.1,1c0.5-0.6,0.9-0.8,1.9-0.8c1.3,0,1.9,0.5,1.9,1.6v0.6h-2.2
				c-1.9,0-2.9,1-2.9,2.4c0,0.7,0.2,1.4,0.7,1.8c0.5,0.5,1.2,0.8,2.3,0.8s1.6-0.2,2.2-0.9v0.8h1.7v-5.7
				C249,34.2,247.8,33.2,245.5,33.2z M247.3,38.7c0,0.6-0.1,1-0.4,1.3c-0.5,0.4-0.9,0.5-1.6,0.5c-1.1,0-1.5-0.4-1.5-1.2
				c0-0.8,0.5-1.2,1.5-1.2h2V38.7z"/>
			<path class="st0" d="M258.3,34c-0.5-0.5-1.2-0.8-2.1-0.8c-0.9,0-1.7,0.3-2.2,1v-0.8h-1.7v8.5h1.7v-5.2c0-1.3,0.8-1.9,1.8-1.9
				s1.7,0.6,1.7,1.9v5.2h1.7v-5.4C259.2,35.4,259,34.6,258.3,34z"/>
		</g>
		<path class="st0" d="M269.4,41.9c-1.4,0-2.6-0.2-3.6-1.2l1.1-1.1c0.7,0.7,1.6,0.9,2.4,0.9c1,0,1.9-0.4,1.9-1.2
			c0-0.6-0.3-0.9-1.1-1l-1.4-0.1c-1.6-0.1-2.5-0.8-2.5-2.3c0-1.7,1.4-2.6,3.2-2.6c1.3,0,2.4,0.3,3.1,1l-1.1,1.1
			c-0.5-0.5-1.3-0.6-2.1-0.6c-1,0-1.5,0.5-1.5,1.1c0,0.5,0.3,0.9,1.2,1l1.3,0.1c1.6,0.1,2.5,0.9,2.5,2.4
			C273,40.9,271.5,41.9,269.4,41.9z"/>
		<path class="st0" d="M264.5,30.8c0,0.5-0.1,1-0.4,1.4c-0.3,0.5-0.7,0.7-1.2,0.7h-0.1v-0.7h0.1c0.3,0,0.5-0.2,0.7-0.5
			c-0.1,0-0.1,0-0.2,0c-0.3,0-0.6-0.1-0.8-0.3s-0.3-0.5-0.3-0.8s0.1-0.6,0.3-0.8c0.2-0.2,0.5-0.3,0.8-0.3c0.5,0,0.9,0.3,1,0.8
			C264.5,30.4,264.5,30.6,264.5,30.8z"/>
	</g>
	<g>
		
			<linearGradient id="SVGID_1_" gradientUnits="userSpaceOnUse" x1="19.3526" y1="8.1536" x2="74.7162" y2="104.0461" gradientTransform="matrix(1 0 0 -1 0 110.38)">
			<stop  offset="0.34" style="stop-color:#F6921E"/>
			<stop  offset="1" style="stop-color:#EC1C24"/>
		</linearGradient>
		<path class="st1" d="M56.2,45c0-0.2,0-0.5-0.1-0.9c-0.1-1-0.3-4.2-0.3-4.2C40.9,53.4,27.4,73,19.5,94.1c-1.1,3.1,1.1,6.6,1.2,6.7
			l0.2,0.3l0.1-0.4c8.3-19.5,21.2-37.7,35-50.6c0.4-0.4,0.4-1.8,0.2-4.3C56.3,45.5,56.2,45.2,56.2,45z"/>
		
			<linearGradient id="SVGID_2_" gradientUnits="userSpaceOnUse" x1="26.312" y1="4.2124" x2="81.6549" y2="100.069" gradientTransform="matrix(1 0 0 -1 0 110.38)">
			<stop  offset="0.34" style="stop-color:#F6921E"/>
			<stop  offset="1" style="stop-color:#EC1C24"/>
		</linearGradient>
		<path class="st2" d="M45.6,75.5c0-0.2,0-0.6-0.1-1.1c-0.1-1.1-0.4-4-0.4-4l0,0c-7.1,8.2-14.3,18.2-19.2,31.1
			c-1.3,3.4,1.1,6.2,1.1,6.2c5.3-12,12.4-20.9,18.4-27.1c0.5-0.5,0.3-2.2,0.2-4.1C45.6,76.1,45.6,75.7,45.6,75.5z"/>
		
			<linearGradient id="SVGID_3_" gradientUnits="userSpaceOnUse" x1="-8.6296" y1="24.092" x2="46.6497" y2="119.8385" gradientTransform="matrix(1 0 0 -1 0 110.38)">
			<stop  offset="0.34" style="stop-color:#F6921E"/>
			<stop  offset="1" style="stop-color:#EC1C24"/>
		</linearGradient>
		<path class="st3" d="M18.5,38.3c0.3-0.6,0.4-2.2,0.2-4.1c0-0.4-0.1-0.8-0.1-1c0-0.2,0-0.6-0.1-1.1c-0.1-1-0.4-4-0.4-4l0,0l0,0
			C8.4,43.9,2.6,60.6,0.1,72.5c-0.6,3.2,1.5,6.8,1.6,6.9L2,79.9l0.1-0.5C5.1,67.6,10.9,51,18.5,38.3z"/>
		
			<linearGradient id="SVGID_4_" gradientUnits="userSpaceOnUse" x1="15.8459" y1="10.0932" x2="71.2611" y2="106.0751" gradientTransform="matrix(1 0 0 -1 0 110.38)">
			<stop  offset="0.34" style="stop-color:#F6921E"/>
			<stop  offset="1" style="stop-color:#EC1C24"/>
		</linearGradient>
		<path class="st4" d="M81.5,5.8c0-0.3,0-0.6,0-0.7c0-0.1,0-0.4-0.1-0.8C81.4,3.5,81.1,0,81.1,0l0,0c-10.3,6.1-19.3,14.5-26,21.1
			C36.2,39.7,17.8,70,13.1,87.2c-0.8,3.1,1.2,6.4,1.3,6.6l0.2,0.4l0.2-0.4C22.5,72.3,36.9,50,54.8,32c9.8-9.8,18.2-16.7,26.6-21.6
			C81.6,10.1,81.7,9.4,81.5,5.8z"/>
		
			<linearGradient id="SVGID_5_" gradientUnits="userSpaceOnUse" x1="0.759" y1="18.732" x2="56.1162" y2="114.6134" gradientTransform="matrix(1 0 0 -1 0 110.38)">
			<stop  offset="0.34" style="stop-color:#F6921E"/>
			<stop  offset="1" style="stop-color:#EC1C24"/>
		</linearGradient>
		<path class="st5" d="M6.5,79.7c-0.9,3.5,1.5,6.9,1.6,7L8.3,87l0.2-0.4c4.6-19.6,20.3-45.3,41.7-69c0.4-0.4,0.4-1.8,0.2-4.2
			c0-0.4-0.1-0.7-0.1-0.9c0-0.2,0-0.5-0.1-1c-0.1-1-0.4-4.2-0.4-4.2l0,0C22.8,35.5,10.4,62.5,6.5,79.7z"/>
	</g>
</g>
</svg>
